Coordinates
version=1
nRows=11
nColumns=42
inDegrees=yes

Units are S.I. units (second, meters, Newtons, ...)
If the header above contains a line with 'inDegrees', this indicates whether rotational values are in degrees (yes) or radians (no).

endheader
time	pelvis_tilt	pelvis_list	pelvis_rotation	pelvis_tx	pelvis_ty	pelvis_tz	hip_flexion_r	hip_adduction_r	hip_rotation_r	knee_angle_r	knee_adduction_r	knee_angle_r_beta	ankle_angle_r	subtalar_angle_r	mtp_angle_r	hip_flexion_l	hip_adduction_l	hip_rotation_l	knee_angle_l	knee_adduction_l	knee_angle_l_beta	ankle_angle_l	subtalar_angle_l	mtp_angle_l	lumbar_extension	lumbar_bending	lumbar_rotation	arm_flex_r	arm_add_r	arm_rot_r	elbow_flex_r	pro_sup_r	wrist_flex_r	wrist_dev_r	arm_flex_l	arm_add_l	arm_rot_l	elbow_flex_l	pro_sup_l	wrist_flex_l	wrist_dev_l
      0.40000000	      7.45057806	     -2.91771307	     10.90943098	     -1.08959780	      0.87201633	      0.19277192	     -0.21879367	      8.68250656	     -0.95774878	     14.79128401	      2.26264561	      0.25815661	     17.26735000	    -13.38752689	     -9.68493098	     13.23071338	     -0.47936661	      3.96217263	     63.53768136	     -8.16144826	      1.10894174	     16.12015526	    -17.86189811	     -9.68493098	    -36.37475624	      9.10513640	     -4.36707277	     15.03443683	    -12.41763081	      1.25111552	     38.18917007	     90.00000001	      0.00000000	      0.00000000	     15.09514415	    -13.44083678	     -3.00015267	     38.54683339	     90.00000001	      0.00000000	      0.00000000
      0.41000000	      7.37498263	     -2.78686796	     10.85401718	     -1.08118462	      0.87202551	      0.19351385	     -0.73061302	      8.81760234	     -1.06319401	     14.92665415	      1.99766168	      0.26051926	     17.81194575	    -13.20793665	     -9.65282396	     14.39597358	     -0.05411165	      3.79985918	     62.51945082	     -8.26025968	      1.09117026	     16.38263621	    -17.83243073	     -9.65282396	    -36.36160254	      8.88478454	     -4.25611242	     15.76443288	    -12.57021001	      1.32048548	     38.50818609	     90.00000001	      0.00000000	      0.00000000	     14.55362835	    -13.30176434	     -2.94619765	     38.07059012	     90.00000001	      0.00000000	      0.00000000
      0.42000000	      7.52542395	     -2.40178786	     10.60934736	     -1.07253135	      0.87265234	      0.19413946	     -1.66114160	      8.54556615	     -0.76746252	     14.90993241	      2.08562221	      0.26022741	     18.52705688	    -12.93622063	     -9.57134643	     14.98956598	      0.63063620	      3.36995299	     60.91995334	     -8.44378750	      1.06325377	     16.23627866	    -17.83014197	     -9.57134643	    -36.61963318	      8.38433415	     -4.10735193	     16.50928232	    -12.86321861	      1.83594188	     38.79310374	     90.00000001	      0.00000000	      0.00000000	     14.24442040	    -13.06513434	     -3.16713381	     37.09310530	     90.00000001	      0.00000000	      0.00000000
      0.43000000	      7.53084597	     -2.22282540	     10.43198012	     -1.06399345	      0.87267436	      0.19482423	     -2.31594681	      8.57398508	     -0.57450865	     14.98689907	      1.97143873	      0.26157073	     19.17037173	    -12.85514341	     -9.51643508	     15.86341499	      1.04731544	      3.28204326	     59.37243854	     -8.29307948	      1.03624454	     16.29612235	    -17.78096102	     -9.51643508	    -36.68207097	      8.08456750	     -3.95107428	     17.25586906	    -13.09442549	      2.15509344	     39.11937526	     90.00000001	      0.00000000	      0.00000000	     13.76134617	    -12.88049310	     -3.31049739	     36.44663382	     90.00000001	      0.00000000	      0.00000000
      0.44000000	      7.35599108	     -2.26677846	     10.39938206	     -1.05561367	      0.87200662	      0.19537814	     -2.66848786	      8.87238899	     -0.63884315	     15.12155671	      1.70871414	      0.26392095	     19.54190601	    -12.59553530	     -9.48735921	     17.09256808	      1.23450145	      3.22754235	     57.85943988	     -8.18302076	      1.00983773	     16.38782134	    -17.48908368	     -9.48735921	    -36.50190128	      8.04296992	     -3.83797422	     17.94134777	    -13.28560341	      2.23916225	     39.51822135	     90.00000001	      0.00000000	      0.00000000	     13.11554571	    -12.73821211	     -3.33817511	     36.11474180	     90.00000001	      0.00000000	      0.00000000
      0.45000000	      7.62601940	     -1.91713161	     10.17190317	     -1.04685492	      0.87255369	      0.19566126	     -3.92522335	      8.69365137	      0.20980812	     14.72074711	      1.75818646	      0.25692551	     20.00900268	    -12.96569521	     -9.35385225	     17.30783257	      1.81396115	      3.27327988	     55.62605919	     -7.83875820	      0.97085788	     16.13067878	    -17.67803357	     -9.35385225	    -36.84746462	      7.63522583	     -3.75149887	     18.74746549	    -13.69304012	      3.27310283	     39.88889498	     90.00000001	      0.00000000	      0.00000000	     12.80281531	    -12.39999842	     -4.17041680	     35.17471926	     90.00000001	      0.00000000	      0.00000000
      0.46000000	      7.55845792	     -1.83821692	     10.05191983	     -1.03839611	      0.87201507	      0.19599354	     -4.46782171	      8.78995414	      0.40061293	     14.81498124	      1.65181628	      0.25857020	     20.58818558	    -12.94844269	     -9.29667327	     18.13569898	      2.08223347	      3.38167894	     53.58106378	     -7.42419484	      0.93516598	     16.08026563	    -17.57684195	     -9.29667327	    -36.78912785	      7.47822479	     -3.63604866	     19.49151122	    -13.92859907	      3.55240689	     40.23935170	     90.00000001	      0.00000000	      0.00000000	     12.31521104	    -12.20271540	     -4.36882966	     34.53062524	     90.00000001	      0.00000000	      0.00000000
      0.47000000	      7.55752405	     -1.76419508	      9.96997261	     -1.02985039	      0.87150345	      0.19613026	     -5.20372766	      8.89795710	      0.65541623	     14.68784251	      1.54156695	      0.25635121	     21.06536077	    -12.89703298	     -9.23260923	     18.79378917	      2.33527026	      3.45390406	     51.30749223	     -7.04026397	      0.89548467	     15.93005595	    -17.50413524	     -9.23260923	    -36.78507416	      7.36833584	     -3.57228944	     20.22561672	    -14.20203176	      4.00898705	     40.64974627	     90.00000001	      0.00000000	      0.00000000	     11.81957866	    -11.96695017	     -4.83381857	     33.92103166	     90.00000001	      0.00000000	      0.00000000
      0.48000000	      7.53238259	     -1.74729331	      9.89909143	     -1.02129476	      0.87079074	      0.19618909	     -5.90497775	      9.06507543	      0.86475015	     14.55977055	      1.41369780	      0.25411593	     21.56764346	    -12.81912991	     -9.17308564	     19.44676474	      2.47343430	      3.40520397	     48.90221726	     -6.64819711	      0.85350470	     15.81559692	    -17.32686997	     -9.17308564	    -36.73408173	      7.32351068	     -3.50706106	     20.94252920	    -14.47781786	      4.44283569	     41.06890697	     90.00000001	      0.00000000	      0.00000000	     11.31665055	    -11.73955974	     -5.30836116	     33.36275974	     90.00000001	      0.00000000	      0.00000000
      0.49000000	      7.47293867	     -1.78037715	      9.83419265	     -1.01278035	      0.86984059	      0.19624620	     -6.54946671	      9.29727047	      0.96392803	     14.44420494	      1.21799117	      0.25209893	     22.09953080	    -12.67416722	     -9.12482441	     20.13144448	      2.52027879	      3.23952185	     46.43293641	     -6.26693456	      0.81040762	     15.70436817	    -17.02325118	     -9.12482441	    -36.64247535	      7.32763633	     -3.43063522	     21.65687681	    -14.71803077	      4.80835114	     41.51369835	     90.00000001	      0.00000000	      0.00000000	     10.79967022	    -11.52238052	     -5.72684904	     32.86615427	     90.00000001	      0.00000000	      0.00000000
      0.50000000	      7.23784947	     -1.98951883	      9.86787472	     -1.00440484	      0.86828519	      0.19613812	     -6.91393338	      9.74773740	      0.86474769	     14.39915104	      0.87822019	      0.25131260	     22.58701870	    -12.40813153	     -9.09514240	     21.12919510	      2.42677543	      2.89597493	     44.05355363	     -6.05042947	      0.76887956	     15.66029351	    -16.50026527	     -9.09514240	    -36.33304137	      7.52909867	     -3.34767614	     22.31009898	    -14.93094368	      4.98223391	     41.95644985	     90.00000001	      0.00000000	      0.00000000	     10.19702324	    -11.30540525	     -5.93419756	     32.54765227	     90.00000001	      0.00000000	      0.00000000
